<svg width="65" height="65" viewBox="0 0 65 65" fill="none" xmlns="http://www.w3.org/2000/svg">
<path d="M27.3037 30.25H24.275C24.0178 30.25 23.8096 30.455 23.8096 30.7082V33.69C23.8096 33.9429 24.0178 34.1482 24.275 34.1482H27.3037C27.5609 34.1482 27.769 33.9429 27.769 33.69V30.7082C27.769 30.4553 27.5609 30.25 27.3037 30.25ZM26.8383 33.2318H24.7403V31.1664H26.8383V33.2318Z" fill="white" stroke="white"/>
<path d="M34.3671 30.25H31.3384C31.0812 30.25 30.873 30.455 30.873 30.7082V33.69C30.873 33.9429 31.0812 34.1482 31.3384 34.1482H34.3671C34.624 34.1482 34.8325 33.9429 34.8325 33.69V30.7082C34.8325 30.4553 34.624 30.25 34.3671 30.25ZM33.9017 33.2318H31.8038V31.1664H33.9017V33.2318Z" fill="white" stroke="white"/>
<path d="M41.2136 30.25H38.1849C37.928 30.25 37.7195 30.455 37.7195 30.7082V33.69C37.7195 33.9429 37.928 34.1482 38.1849 34.1482H41.2136C41.4705 34.1482 41.6789 33.9429 41.6789 33.69V30.7082C41.6789 30.4553 41.4705 30.25 41.2136 30.25ZM40.7482 33.2318H38.6502V31.1664H40.7482V33.2318Z" fill="white" stroke="white"/>
<path d="M27.3037 37.042H24.275C24.0178 37.042 23.8096 37.2473 23.8096 37.5002V40.482C23.8096 40.7349 24.0178 40.9402 24.275 40.9402H27.3037C27.5609 40.9402 27.769 40.7349 27.769 40.482V37.5002C27.769 37.2473 27.5609 37.042 27.3037 37.042ZM26.8383 40.0238H24.7403V37.9584H26.8383V40.0238Z" fill="white" stroke="white"/>
<path d="M34.3671 37.042H31.3384C31.0812 37.042 30.873 37.2473 30.873 37.5002V40.482C30.873 40.7349 31.0812 40.9402 31.3384 40.9402H34.3671C34.624 40.9402 34.8325 40.7349 34.8325 40.482V37.5002C34.8325 37.2473 34.624 37.042 34.3671 37.042ZM33.9017 40.0238H31.8038V37.9584H33.9017V40.0238Z" fill="white" stroke="white"/>
<path d="M41.2136 37.042H38.1849C37.928 37.042 37.7195 37.2473 37.7195 37.5002V40.482C37.7195 40.7349 37.928 40.9402 38.1849 40.9402H41.2136C41.4705 40.9402 41.6789 40.7349 41.6789 40.482V37.5002C41.6789 37.2473 41.4705 37.042 41.2136 37.042ZM40.7482 40.0238H38.6502V37.9584H40.7482V40.0238Z" fill="white" stroke="white"/>
<path d="M44.8992 21.3782H41.8255C41.8215 21.3782 41.8181 21.3791 41.814 21.3794V20.7691C41.814 19.7709 40.9894 18.959 39.9755 18.959C38.9616 18.959 38.1369 19.7712 38.1369 20.7691V21.3782H34.6735V20.7691C34.6735 19.7709 33.8489 18.959 32.835 18.959C31.8211 18.959 30.9964 19.7712 30.9964 20.7691V21.3782H27.5327V20.7691C27.5327 19.7709 26.7081 18.959 25.6942 18.959C24.6803 18.959 23.8556 19.7712 23.8556 20.7691V21.3785C23.854 21.3785 23.8525 21.3782 23.8509 21.3782H20.7779C20.5207 21.3782 20.3125 21.5831 20.3125 21.8364V45.5841C20.3125 45.8371 20.5207 46.0423 20.7779 46.0423H44.8992C45.1561 46.0423 45.3646 45.8371 45.3646 45.5841V21.8364C45.3646 21.5831 45.1561 21.3782 44.8992 21.3782ZM39.0677 20.7691C39.0677 20.2761 39.4747 19.8753 39.9755 19.8753C40.4762 19.8753 40.8833 20.2761 40.8833 20.7691V23.2973C40.8833 23.79 40.4762 24.1911 39.9755 24.1911C39.4747 24.1911 39.0677 23.7903 39.0677 23.2973V20.7691ZM32.835 19.8753C33.3354 19.8753 33.7428 20.2761 33.7428 20.7691V23.2973C33.7428 23.79 33.3357 24.1911 32.835 24.1911C32.3342 24.1911 31.9272 23.7903 31.9272 23.2973V21.8791C31.9284 21.8648 31.9315 21.851 31.9315 21.8361C31.9315 21.8211 31.9284 21.8073 31.9272 21.793V20.7691C31.9272 20.2761 32.3342 19.8753 32.835 19.8753ZM24.7864 20.7691C24.7864 20.2761 25.1934 19.8753 25.6942 19.8753C26.1946 19.8753 26.602 20.2761 26.602 20.7691V23.2973C26.602 23.79 26.1949 24.1911 25.6942 24.1911C25.1934 24.1911 24.7864 23.7903 24.7864 23.2973V20.7691ZM44.4338 45.126H21.2433V22.2945H23.8509C23.8525 22.2945 23.854 22.2942 23.8556 22.2942V23.2976C23.8556 24.2959 24.6806 25.1078 25.6942 25.1078C26.7078 25.1078 27.5327 24.2959 27.5327 23.2976V22.2948H30.9964V23.2976C30.9964 24.2959 31.8214 25.1078 32.835 25.1078C33.8486 25.1078 34.6735 24.2959 34.6735 23.2976V22.2948H38.1369V23.2976C38.1369 24.2959 38.9616 25.1078 39.9755 25.1078C40.9894 25.1078 41.814 24.2959 41.814 23.2976V22.2933C41.8181 22.2933 41.8215 22.2945 41.8255 22.2945H44.4338V45.126Z" fill="white" stroke="white"/>
<circle cx="32.5" cy="32.5" r="31" stroke="white" stroke-width="3"/>
</svg>
