<svg width="65" height="65" viewBox="0 0 65 65" fill="none" xmlns="http://www.w3.org/2000/svg">
<path d="M32.5 0C14.5492 0 0 14.5493 0 32.4997C0 50.4502 14.5492 65 32.5 65C50.4508 65 65 50.4501 65 32.4997C65 14.5493 50.4506 0 32.5 0ZM32.5 2.70838C48.9273 2.70838 62.2917 16.0727 62.2917 32.4999C62.2917 39.7269 59.7025 46.36 55.4045 51.5242C52.4343 50.2837 45.4228 47.8505 41.0825 46.569C40.7123 46.4527 40.6541 46.4341 40.6541 44.8935C40.6541 43.6212 41.1777 42.34 41.6882 41.2556C42.241 40.0773 42.8968 38.0963 43.1324 36.3189C43.7909 35.5545 44.6875 34.0469 45.2641 31.1735C45.7692 28.6409 45.5338 27.7193 45.198 26.8543C45.1636 26.763 45.1265 26.6732 45.1001 26.5832C44.9731 25.9894 45.1476 22.9042 45.5815 20.5106C45.8804 18.8681 45.5048 15.3756 43.2435 12.4863C41.8153 10.66 39.083 8.41854 34.0923 8.10648L31.3549 8.10907C26.4486 8.41867 23.7138 10.66 22.2856 12.4863C20.0243 15.3757 19.6488 18.8683 19.9476 20.5094C20.384 22.9042 20.556 25.9894 20.4317 26.5713C20.4052 26.673 20.3682 26.763 20.3312 26.8543C19.9979 27.7193 19.7599 28.6409 20.2677 31.1735C20.8416 34.0469 21.7383 35.5546 22.3994 36.3189C22.6322 38.0962 23.2882 40.0773 23.8435 41.2556C24.2482 42.1178 24.4386 43.2908 24.4386 44.9491C24.4386 46.4896 24.3804 46.5083 24.0339 46.618C19.5456 47.9431 12.4019 50.5244 9.73842 51.6908C5.35594 46.503 2.7084 39.8063 2.7084 32.5C2.70827 16.0726 16.0727 2.70838 32.5 2.70838ZM11.7007 53.8019C14.7503 52.5569 20.8309 50.3881 24.8245 49.2085C27.1468 48.4759 27.1468 46.5201 27.1468 44.9491C27.1468 43.6465 27.0569 41.7262 26.2952 40.1024C25.7714 38.9903 25.1736 37.0833 25.0415 35.5904C25.0124 35.2413 24.8485 34.9186 24.5839 34.6885C24.2004 34.3525 23.4201 33.1227 22.9229 30.6419C22.5289 28.6781 22.6955 28.2483 22.8569 27.8331C22.9256 27.6558 22.9918 27.4813 23.0448 27.2842C23.37 26.0954 23.0076 22.1902 22.6136 20.0241C22.4418 19.0826 22.6585 16.4073 24.42 14.1538C25.9989 12.1345 28.3898 11.0091 31.4394 10.8147L34.0076 10.812C37.1391 11.0091 39.53 12.1345 41.1117 14.1538C42.8731 16.4073 43.0874 19.0826 42.9154 20.0253C42.5239 22.1902 42.1589 26.0953 42.4842 27.2828C42.5399 27.4811 42.6032 27.6557 42.6721 27.8329C42.8335 28.2481 43 28.6779 42.6086 30.6418C42.1115 33.1227 41.3285 34.3525 40.945 34.6884C40.6832 34.9185 40.5193 35.2411 40.4874 35.5902C40.3578 37.0831 39.7601 38.9902 39.2365 40.1023C38.6361 41.3785 37.9458 43.0778 37.9458 44.8934C37.9458 46.4645 37.9458 48.4203 40.2918 49.1596C44.1136 50.2889 50.2233 52.3875 53.45 53.6565C48.0624 58.991 40.6595 62.2918 32.5 62.2918C24.4147 62.2918 17.0752 59.0493 11.7007 53.8019Z" fill="white"/>
</svg>
