<svg width="46" height="50" viewBox="0 0 46 50" fill="none" xmlns="http://www.w3.org/2000/svg">
<path d="M41.4591 9.87429L26.9938 1.60418C25.7806 0.906523 24.4028 0.539062 23 0.539062C21.5972 0.539062 20.2194 0.906523 19.0062 1.60418L4.54091 9.87429C3.32535 10.5695 2.31618 11.5697 1.61504 12.7742C0.913901 13.9787 0.545553 15.3449 0.547093 16.7353V33.2755C0.550204 34.6606 0.920816 36.0206 1.62178 37.2191C2.32274 38.4176 3.32942 39.4125 4.54091 40.1041L19.0062 48.3742C20.2194 49.0718 21.5972 49.4393 23 49.4393C24.4028 49.4393 25.7806 49.0718 26.9938 48.3742L41.4591 40.1041C42.6738 39.4106 43.6825 38.4123 44.3837 37.2097C45.0848 36.0071 45.4536 34.6426 45.4529 33.2539V16.7353C45.4544 15.3449 45.0861 13.9787 44.385 12.7742C43.6838 11.5697 42.6746 10.5695 41.4591 9.87429Z" fill="#006CB5" stroke="#EDEDED" stroke-miterlimit="10"/>
<path d="M22.7965 13.7383C18.4841 13.7383 14.9756 17.2468 14.9756 21.5592C14.9756 26.9794 22.8042 36.2383 22.8042 36.2383C22.8042 36.2383 30.6174 26.7129 30.6174 21.5592C30.6174 17.2468 27.109 13.7383 22.7965 13.7383ZM25.1562 23.8491C24.5055 24.4997 23.6511 24.825 22.7965 24.825C21.942 24.825 21.0873 24.4997 20.4369 23.8491C19.1357 22.5481 19.1357 20.431 20.4369 19.1298C21.067 18.4995 21.9051 18.1523 22.7965 18.1523C23.6879 18.1523 24.5259 18.4996 25.1562 19.1298C26.4574 20.431 26.4574 22.5481 25.1562 23.8491Z" fill="white"/>
</svg>
