<svg width="36" height="35" viewBox="0 0 36 35" fill="none" xmlns="http://www.w3.org/2000/svg">
<path d="M18.322 34.9985C27.9866 34.9985 35.8213 27.1638 35.8213 17.4993C35.8213 7.83468 27.9866 0 18.322 0C8.65743 0 0.822754 7.83468 0.822754 17.4993C0.822754 27.1638 8.65743 34.9985 18.322 34.9985Z" fill="white"/>
<path d="M21.4391 10.3355C22.5054 10.3355 23.9204 10.3355 23.9204 10.3355V6.63062C23.9204 6.63062 22.4302 6.63062 20.4069 6.63062C18.3835 6.63062 15.7518 7.92939 15.7518 11.7027C15.7518 12.4067 15.7518 13.4389 15.7518 14.642H12.3955V18.4768H15.7518C15.7518 23.2549 15.7518 28.4568 15.7518 28.4568H17.242H18.4245H19.7575C19.7575 28.4568 19.7575 23.0703 19.7575 18.4768H23.0933L23.647 14.642H19.7575C19.7575 13.3842 19.7575 12.4683 19.7575 12.2017C19.7575 10.9439 20.3727 10.3355 21.4391 10.3355Z" fill="#2E95DB"/>
</svg>
