<svg width="29" height="29" viewBox="0 0 29 29" fill="none" xmlns="http://www.w3.org/2000/svg">
<path d="M14.5 29C22.5081 29 29 22.5081 29 14.5C29 6.49187 22.5081 0 14.5 0C6.49187 0 0 6.49187 0 14.5C0 22.5081 6.49187 29 14.5 29Z" fill="#3B5998"/>
<path d="M17.0828 8.56406C17.9664 8.56406 19.1389 8.56406 19.1389 8.56406V5.49414C19.1389 5.49414 17.9041 5.49414 16.2275 5.49414C14.551 5.49414 12.3703 6.57031 12.3703 9.69687C12.3703 10.2803 12.3703 11.1355 12.3703 12.1324H9.58926V15.31H12.3703C12.3703 19.2691 12.3703 23.5795 12.3703 23.5795H13.6051H14.585H15.6895C15.6895 23.5795 15.6895 19.1162 15.6895 15.31H18.4535L18.9123 12.1324H15.6895C15.6895 11.0902 15.6895 10.3312 15.6895 10.1104C15.6895 9.06816 16.1992 8.56406 17.0828 8.56406Z" fill="white"/>
</svg>
