<svg width="35" height="35" viewBox="0 0 35 35" fill="none" xmlns="http://www.w3.org/2000/svg">
<path d="M0 17.0563V17.9996C0.246085 27.0501 7.53294 34.3164 16.2074 35H18.8734C27.5957 34.3096 34.7595 26.9817 34.9988 17.9859V17.0563C34.7595 7.90328 27.3496 0.479708 18.4154 0.0217156C8.80438 -0.463619 0.266592 7.24705 0 17.0563Z" fill="white"/>
<path d="M17.5817 8.79193C20.3706 8.79193 20.6988 8.79876 21.8061 8.85345C22.8247 8.89446 23.3715 9.07219 23.7406 9.21574C24.226 9.40714 24.5746 9.63955 24.9369 10.0087C25.2992 10.3778 25.5316 10.7333 25.723 11.2254C25.8665 11.6014 26.0306 12.1619 26.0853 13.201C26.14 14.322 26.1468 14.657 26.1468 17.4938C26.1468 20.3306 26.14 20.6655 26.0853 21.7866C26.0443 22.8188 25.8734 23.3861 25.723 23.7621C25.5316 24.2543 25.306 24.6097 24.9369 24.9789C24.5746 25.348 24.226 25.5804 23.7406 25.7718C23.3715 25.9222 22.8178 26.0931 21.8061 26.1341C20.7056 26.1888 20.3706 26.1956 17.5817 26.1956C14.7927 26.1956 14.4646 26.1888 13.3572 26.1341C12.3387 26.0931 11.7918 25.9154 11.4227 25.7718C10.9374 25.5804 10.5887 25.348 10.2265 24.9789C9.86416 24.6097 9.63175 24.2543 9.44035 23.7621C9.2968 23.3861 9.13274 22.8256 9.07806 21.7866C9.02337 20.6655 9.01654 20.3306 9.01654 17.4938C9.01654 14.657 9.02337 14.322 9.07806 13.201C9.11907 12.1688 9.28997 11.6014 9.44035 11.2254C9.63175 10.7333 9.85733 10.3778 10.2265 10.0087C10.5887 9.63955 10.9374 9.40714 11.4227 9.21574C11.7918 9.06535 12.3455 8.89446 13.3572 8.85345C14.4578 8.8056 14.7927 8.79193 17.5817 8.79193ZM17.5817 6.87793C14.7449 6.87793 14.3894 6.8916 13.282 6.94629C12.1746 7.00097 11.409 7.1787 10.746 7.43846C10.0556 7.71189 9.47453 8.07418 8.90033 8.66888C8.3193 9.26359 7.96384 9.85146 7.69725 10.5555C7.43749 11.2254 7.25976 12.0047 7.21191 13.1326C7.15723 14.2605 7.15039 14.6228 7.15039 17.5074C7.15039 20.3921 7.16406 20.7544 7.21191 21.8823C7.2666 23.0102 7.44433 23.7826 7.69725 24.4594C7.96384 25.1566 8.3193 25.7513 8.90033 26.346C9.48136 26.9407 10.0624 27.303 10.746 27.5764C11.409 27.843 12.1746 28.0208 13.282 28.0686C14.3962 28.1233 14.7517 28.137 17.5817 28.137C20.4117 28.137 20.7739 28.1233 21.8813 28.0686C22.9887 28.0139 23.7543 27.8362 24.4174 27.5764C25.1078 27.303 25.6888 26.9407 26.263 26.346C26.844 25.7513 27.1995 25.1634 27.4661 24.4594C27.7259 23.7895 27.9036 23.0102 27.9514 21.8823C28.0061 20.7544 28.0129 20.3921 28.0129 17.5074C28.0129 14.6228 27.9993 14.2605 27.9514 13.1326C27.8967 12.0047 27.719 11.2323 27.4661 10.5555C27.1995 9.8583 26.844 9.26359 26.263 8.66888C25.682 8.07418 25.1009 7.71189 24.4174 7.43846C23.7543 7.17187 22.9887 6.99414 21.8813 6.94629C20.7739 6.8916 20.4117 6.87793 17.5817 6.87793Z" fill="#2E95DB"/>
<rect x="8" y="8" width="19" height="19" rx="4" fill="#2E95DB"/>
<path d="M17.5814 12.0458C14.6147 12.0458 12.2222 14.4861 12.2222 17.5007C12.2222 20.5152 14.6215 22.9556 17.5814 22.9556C20.5412 22.9556 22.9405 20.5152 22.9405 17.5007C22.9405 14.4861 20.5412 12.0458 17.5814 12.0458ZM17.5814 21.0416C15.6605 21.0416 14.102 19.4625 14.102 17.5007C14.102 15.5388 15.6605 13.9598 17.5814 13.9598C19.5022 13.9598 21.0607 15.5388 21.0607 17.5007C21.0607 19.4625 19.5022 21.0416 17.5814 21.0416Z" fill="white"/>
<path d="M23.1528 13.0985C23.8437 13.0985 24.4037 12.5293 24.4037 11.8271C24.4037 11.1249 23.8437 10.5557 23.1528 10.5557C22.4619 10.5557 21.9019 11.1249 21.9019 11.8271C21.9019 12.5293 22.4619 13.0985 23.1528 13.0985Z" fill="white"/>
</svg>
