<svg width="29" height="30" viewBox="0 0 29 30" fill="none" xmlns="http://www.w3.org/2000/svg">
<path d="M0 14.133V14.9146C0.203908 22.4139 6.24185 28.4348 13.4296 29.0012H15.6386C22.866 28.4292 28.802 22.3572 29.0002 14.9033V14.133C28.802 6.54871 22.6621 0.397489 15.2591 0.0179937C7.29537 -0.384158 0.2209 6.00496 0 14.133Z" fill="url(#paint0_radial)"/>
<path d="M14.5681 7.28505C16.879 7.28505 17.1509 7.29071 18.0685 7.33602C18.9125 7.37001 19.3656 7.51728 19.6714 7.63622C20.0736 7.79482 20.3625 7.9874 20.6627 8.29326C20.9629 8.59912 21.1554 8.89365 21.314 9.30147C21.433 9.613 21.5689 10.0775 21.6142 10.9384C21.6595 11.8673 21.6652 12.1449 21.6652 14.4955C21.6652 16.8461 21.6595 17.1236 21.6142 18.0525C21.5803 18.9078 21.4386 19.3779 21.314 19.6894C21.1554 20.0973 20.9685 20.3918 20.6627 20.6977C20.3625 21.0035 20.0736 21.1961 19.6714 21.3547C19.3656 21.4793 18.9068 21.6209 18.0685 21.6549C17.1566 21.7002 16.879 21.7059 14.5681 21.7059C12.2571 21.7059 11.9852 21.7002 11.0677 21.6549C10.2237 21.6209 9.77058 21.4736 9.46472 21.3547C9.06257 21.1961 8.7737 21.0035 8.4735 20.6977C8.1733 20.3918 7.98072 20.0973 7.82213 19.6894C7.70318 19.3779 7.56724 18.9135 7.52193 18.0525C7.47662 17.1236 7.47095 16.8461 7.47095 14.4955C7.47095 12.1449 7.47662 11.8673 7.52193 10.9384C7.55592 10.0831 7.69752 9.613 7.82213 9.30147C7.98072 8.89365 8.16764 8.59912 8.4735 8.29326C8.7737 7.9874 9.06257 7.79482 9.46472 7.63622C9.77058 7.51161 10.2294 7.37001 11.0677 7.33602C11.9796 7.29638 12.2571 7.28505 14.5681 7.28505ZM14.5681 5.6991C12.2175 5.6991 11.9229 5.71042 11.0054 5.75574C10.0878 5.80105 9.45339 5.94832 8.90397 6.16355C8.3319 6.39012 7.85045 6.69032 7.37466 7.18309C6.89321 7.67587 6.59868 8.16298 6.37778 8.74639C6.16254 9.30147 6.01528 9.94718 5.97563 10.8818C5.93032 11.8163 5.92465 12.1165 5.92465 14.5068C5.92465 16.897 5.93598 17.1972 5.97563 18.1318C6.02094 19.0664 6.16821 19.7064 6.37778 20.2672C6.59868 20.8449 6.89321 21.3377 7.37466 21.8305C7.85611 22.3233 8.33756 22.6235 8.90397 22.85C9.45339 23.0709 10.0878 23.2182 11.0054 23.2578C11.9286 23.3032 12.2231 23.3145 14.5681 23.3145C16.913 23.3145 17.2132 23.3032 18.1308 23.2578C19.0484 23.2125 19.6828 23.0653 20.2322 22.85C20.8043 22.6235 21.2857 22.3233 21.7615 21.8305C22.243 21.3377 22.5375 20.8506 22.7584 20.2672C22.9736 19.7121 23.1209 19.0664 23.1605 18.1318C23.2058 17.1972 23.2115 16.897 23.2115 14.5068C23.2115 12.1165 23.2002 11.8163 23.1605 10.8818C23.1152 9.94718 22.968 9.30713 22.7584 8.74639C22.5375 8.16865 22.243 7.67587 21.7615 7.18309C21.2801 6.69032 20.7986 6.39012 20.2322 6.16355C19.6828 5.94265 19.0484 5.79539 18.1308 5.75574C17.2132 5.71042 16.913 5.6991 14.5681 5.6991Z" fill="white"/>
<path d="M14.5681 9.9812C12.1098 9.9812 10.1274 12.0033 10.1274 14.5012C10.1274 16.999 12.1155 19.0211 14.5681 19.0211C17.0206 19.0211 19.0087 16.999 19.0087 14.5012C19.0087 12.0033 17.0206 9.9812 14.5681 9.9812ZM14.5681 17.4352C12.9765 17.4352 11.685 16.1268 11.685 14.5012C11.685 12.8756 12.9765 11.5672 14.5681 11.5672C16.1597 11.5672 17.4511 12.8756 17.4511 14.5012C17.4511 16.1268 16.1597 17.4352 14.5681 17.4352Z" fill="white"/>
<path d="M19.1843 10.8534C19.7568 10.8534 20.2209 10.3818 20.2209 9.79992C20.2209 9.21808 19.7568 8.7464 19.1843 8.7464C18.6119 8.7464 18.1478 9.21808 18.1478 9.79992C18.1478 10.3818 18.6119 10.8534 19.1843 10.8534Z" fill="white"/>
<defs>
<radialGradient id="paint0_radial" cx="0" cy="0" r="1" gradientUnits="userSpaceOnUse" gradientTransform="translate(0.529924 26.3422) rotate(-86.9998) scale(41.9266 35.6376)">
<stop stop-color="#FED576"/>
<stop offset="0.2634" stop-color="#F47133"/>
<stop offset="0.6091" stop-color="#BC3081"/>
<stop offset="1" stop-color="#4C63D2"/>
</radialGradient>
</defs>
</svg>
