<svg width="46" height="50" viewBox="0 0 46 50" fill="none" xmlns="http://www.w3.org/2000/svg">
<path d="M41.4591 9.87429L26.9938 1.60418C25.7806 0.906523 24.4028 0.539062 23 0.539062C21.5972 0.539062 20.2194 0.906523 19.0062 1.60418L4.54092 9.87429C3.32535 10.5695 2.31618 11.5697 1.61505 12.7742C0.913909 13.9787 0.545561 15.3449 0.547101 16.7353V33.2755C0.550212 34.6606 0.920823 36.0206 1.62178 37.2191C2.32275 38.4176 3.32943 39.4125 4.54092 40.1041L19.0062 48.3742C20.2194 49.0718 21.5972 49.4393 23 49.4393C24.4028 49.4393 25.7806 49.0718 26.9938 48.3742L41.4591 40.1041C42.6738 39.4106 43.6825 38.4123 44.3837 37.2097C45.0848 36.0071 45.4536 34.6426 45.4529 33.2539V16.7353C45.4544 15.3449 45.0861 13.9787 44.385 12.7742C43.6838 11.5697 42.6747 10.5695 41.4591 9.87429Z" fill="#006CB5" stroke="#EDEDED" stroke-miterlimit="10"/>
<path d="M22.3797 27.3004C20.6612 25.8902 19.5137 24.1501 18.9104 23.16L18.4604 22.3134C18.6177 22.1449 19.8176 20.8628 20.3376 20.1671C20.991 19.2935 20.0436 18.5046 20.0436 18.5046C20.0436 18.5046 17.3779 15.844 16.7703 15.3163C16.1628 14.7878 15.4635 15.0813 15.4635 15.0813C14.1866 15.9046 12.8629 16.6204 12.7834 20.0629C12.7805 23.286 15.2323 26.6102 17.8836 29.1838C20.5392 32.0902 24.1853 35.0033 27.7103 35C31.1597 34.9215 31.8768 33.6007 32.7018 32.3265C32.7018 32.3265 32.9961 31.6292 32.4671 31.0224C31.9377 30.4157 29.2712 27.755 29.2712 27.755C29.2712 27.755 28.4811 26.8094 27.6056 27.462C26.953 27.9487 25.7813 29.0314 25.499 29.2939C25.4996 29.2948 23.5394 28.2521 22.3797 27.3004Z" fill="white"/>
</svg>
