<svg width="36" height="35" viewBox="0 0 36 35" fill="none" xmlns="http://www.w3.org/2000/svg">
<path d="M18.0139 34.9985C27.6785 34.9985 35.5131 27.1638 35.5131 17.4993C35.5131 7.83468 27.6785 0 18.0139 0C8.34933 0 0.514648 7.83468 0.514648 17.4993C0.514648 27.1638 8.34933 34.9985 18.0139 34.9985Z" fill="white"/>
<path fill-rule="evenodd" clip-rule="evenodd" d="M17.351 25.1757H18.7249C18.7249 25.1757 19.1419 25.1279 19.3538 24.9023C19.552 24.6904 19.5452 24.3008 19.5452 24.3008C19.5452 24.3008 19.5179 22.4552 20.3723 22.1886C21.2131 21.922 22.3 23.9658 23.4484 24.7588C24.3165 25.3535 24.9727 25.2236 24.9727 25.2236L28.0419 25.1826C28.0419 25.1826 29.6483 25.0869 28.8827 23.8223C28.8212 23.7198 28.4384 22.8858 26.5996 21.1837C24.6788 19.3996 24.9317 19.6867 27.249 16.597C28.6639 14.7172 29.2245 13.5688 29.0467 13.0767C28.8759 12.605 27.8437 12.7349 27.8437 12.7349L24.3848 12.7554C24.3848 12.7554 24.1319 12.7212 23.9405 12.8306C23.756 12.9399 23.6329 13.1997 23.6329 13.1997C23.6329 13.1997 23.0861 14.6557 22.3546 15.8929C20.8166 18.5042 20.2014 18.6409 19.9485 18.4836C19.3606 18.1009 19.511 16.9661 19.511 16.1527C19.511 13.6235 19.8938 12.564 18.7659 12.2906C18.39 12.2017 18.1165 12.1402 17.1527 12.1333C15.9223 12.1197 14.8765 12.1333 14.2818 12.4273C13.8921 12.6187 13.5845 13.0493 13.7691 13.0698C13.9947 13.0972 14.5142 13.2134 14.7876 13.5825C15.143 14.061 15.1294 15.1479 15.1294 15.1479C15.1294 15.1479 15.3344 18.1282 14.6509 18.4973C14.1861 18.7502 13.5435 18.2307 12.1764 15.8656C11.4723 14.6489 10.946 13.3091 10.946 13.3091C10.946 13.3091 10.8434 13.0561 10.6589 12.9263C10.4333 12.7622 10.1257 12.7144 10.1257 12.7144L6.84457 12.7349C6.84457 12.7349 6.35241 12.7485 6.16784 12.9604C6.01062 13.1518 6.15417 13.5483 6.15417 13.5483C6.15417 13.5483 8.72437 19.5637 11.6364 22.5919C14.3228 25.3603 17.351 25.1757 17.351 25.1757Z" fill="#2E95DB"/>
</svg>
