<svg width="29" height="29" viewBox="0 0 29 29" fill="none" xmlns="http://www.w3.org/2000/svg">
<path d="M14.5 29C22.5081 29 29 22.5081 29 14.5C29 6.49187 22.5081 0 14.5 0C6.49187 0 0 6.49187 0 14.5C0 22.5081 6.49187 29 14.5 29Z" fill="#4D76A1"/>
<path fill-rule="evenodd" clip-rule="evenodd" d="M13.9506 20.8607H15.0891C15.0891 20.8607 15.4346 20.8211 15.6102 20.6342C15.7744 20.4586 15.7688 20.1357 15.7688 20.1357C15.7688 20.1357 15.7461 18.6064 16.4541 18.3855C17.1508 18.1646 18.0514 19.8582 19.0029 20.5152C19.7223 21.008 20.266 20.9004 20.266 20.9004L22.8092 20.8664C22.8092 20.8664 24.1402 20.7871 23.5059 19.7393C23.4549 19.6543 23.1377 18.9633 21.6141 17.5529C20.0225 16.0746 20.232 16.3125 22.1522 13.7523C23.3246 12.1947 23.7891 11.2432 23.6418 10.8353C23.5002 10.4445 22.6449 10.5521 22.6449 10.5521L19.7789 10.5691C19.7789 10.5691 19.5693 10.5408 19.4108 10.6314C19.2578 10.7221 19.1559 10.9373 19.1559 10.9373C19.1559 10.9373 18.7027 12.1437 18.0967 13.1689C16.8223 15.3326 16.3125 15.4459 16.1029 15.3156C15.6158 14.9984 15.7404 14.0582 15.7404 13.3842C15.7404 11.2885 16.0576 10.4105 15.1231 10.184C14.8115 10.1103 14.585 10.0594 13.7863 10.0537C12.7668 10.0424 11.9002 10.0537 11.4074 10.2973C11.0846 10.4559 10.8297 10.8127 10.9826 10.8297C11.1695 10.8523 11.6 10.9486 11.8266 11.2545C12.1211 11.651 12.1098 12.5516 12.1098 12.5516C12.1098 12.5516 12.2797 15.0211 11.7133 15.3269C11.3281 15.5365 10.7957 15.106 9.6629 13.1463C9.0795 12.1381 8.64337 11.0279 8.64337 11.0279C8.64337 11.0279 8.55841 10.8184 8.40548 10.7107C8.21856 10.5748 7.96368 10.5351 7.96368 10.5351L5.24493 10.5521C5.24493 10.5521 4.83712 10.5635 4.68419 10.7391C4.55392 10.8976 4.67286 11.2262 4.67286 11.2262C4.67286 11.2262 6.80255 16.2105 9.21544 18.7197C11.4414 21.0137 13.9506 20.8607 13.9506 20.8607Z" fill="white"/>
</svg>
