<svg width="36" height="40" viewBox="0 0 36 40" fill="none" xmlns="http://www.w3.org/2000/svg">
<g clip-path="url(#clip0)">
<path d="M32.4463 7.89933L21.1257 1.28325C20.1762 0.725121 19.0979 0.431152 18.0001 0.431152C16.9022 0.431152 15.8239 0.725121 14.8745 1.28325L3.55382 7.89933C2.60251 8.45549 1.81273 9.25566 1.26401 10.2193C0.715293 11.1829 0.427021 12.2759 0.428226 13.3882V26.6203C0.430661 27.7284 0.720705 28.8164 1.26928 29.7752C1.81786 30.734 2.6057 31.5299 3.55382 32.0832L14.8745 38.6992C15.8239 39.2574 16.9022 39.5513 18.0001 39.5513C19.0979 39.5513 20.1762 39.2574 21.1257 38.6992L32.4463 32.0832C33.3969 31.5284 34.1864 30.7298 34.7351 29.7677C35.2839 28.8056 35.5725 27.714 35.5719 26.603V13.3882C35.5731 12.2759 35.2848 11.1829 34.7361 10.2193C34.1874 9.25566 33.3976 8.45549 32.4463 7.89933Z" fill="#006CB5" stroke="#EDEDED" stroke-miterlimit="10"/>
<g clip-path="url(#clip1)">
<path d="M20.7207 28.0242H9V26.9313C9.21324 27.1008 9.48551 27.2036 9.77871 27.2036H19.9115L20.7207 28.0242ZM14.0721 11.9758C13.4438 11.9758 12.9336 12.4861 12.9336 13.1144C12.9336 13.5047 13.1297 13.8493 13.4305 14.0549C13.5599 13.697 13.7694 13.3676 14.0474 13.0896C14.3253 12.8117 14.6547 12.6022 15.0127 12.4728C14.807 12.172 14.4624 11.9758 14.0721 11.9758ZM13.7465 14.9593C13.7465 16.1588 14.7195 17.1298 15.917 17.1298C17.1146 17.1298 18.0875 16.1569 18.0875 14.9593C18.0875 13.7598 17.1146 12.7888 15.917 12.7888C15.6619 12.7888 15.4182 12.8326 15.1916 12.9126C14.5767 13.1315 14.0873 13.619 13.8703 14.2339C13.7903 14.4624 13.7465 14.7061 13.7465 14.9593ZM12.568 17.9542C12.0596 19.0814 10.9515 21.962 10.6469 22.6874H14.4281C14.5119 22.4818 14.6052 22.2819 14.708 22.0934C15.0641 21.4289 16.176 21.0995 15.9113 20.1723C15.9094 20.1647 15.9056 20.1571 15.9037 20.1476L16.8995 21.092C16.9737 21.1624 17.0632 21.2195 17.1584 21.2557L19.8811 22.2953C19.9725 22.3295 20.0677 22.3466 20.1609 22.3466C20.477 22.3466 20.774 22.1543 20.892 21.8421C21.0463 21.4385 20.8444 20.9853 20.4389 20.8311L18.0323 19.9115C17.92 19.8677 17.8172 19.803 17.7296 19.7211C17.7296 19.7211 15.6105 17.7105 15.6086 17.7086C15.5191 17.623 15.403 17.5677 15.2811 17.5278C15.2526 17.5182 15.2221 17.5087 15.1917 17.5011C15.1593 17.4916 15.125 17.4821 15.0907 17.4744C14.5614 17.3336 13.9731 17.2136 13.4286 17.2612C13.2496 17.2764 13.0535 17.3221 12.9012 17.4268C12.726 17.5525 12.6537 17.7657 12.568 17.9542ZM9.77871 26.7276H20.1095L21.0996 27.731C21.1929 27.8262 21.3052 27.9004 21.4251 27.9499C21.5432 27.9975 21.6689 28.0242 21.7983 28.0242H26.0175C26.5658 28.0242 27.0075 27.5749 26.9999 27.0265C26.9904 26.4877 26.5411 26.0612 26.0023 26.0612H22.2096L19.6316 23.4452C19.4317 23.2415 19.3137 23.1577 18.9557 23.1577C18.3389 23.1577 9.77871 23.1634 9.77871 23.1634C9.34842 23.1634 9 23.5119 9 23.9421V25.7471V25.9489C9 26.3792 9.34842 26.7276 9.77871 26.7276ZM25.5834 23.1368C25.5834 21.8935 24.5743 20.8844 23.331 20.8844C22.0877 20.8844 21.0786 21.8935 21.0786 23.1368C21.0786 24.3801 22.0877 25.3891 23.331 25.3891C24.5743 25.3891 25.5834 24.3819 25.5834 23.1368Z" fill="white"/>
</g>
</g>
<defs>
<clipPath id="clip0">
<rect width="36" height="40" fill="white"/>
</clipPath>
<clipPath id="clip1">
<rect width="18" height="18" fill="white" transform="translate(9 11)"/>
</clipPath>
</defs>
</svg>
