<svg width="36" height="40" viewBox="0 0 36 40" fill="none" xmlns="http://www.w3.org/2000/svg">
<g clip-path="url(#clip0)">
<path d="M32.4463 7.89933L21.1257 1.28325C20.1762 0.725121 19.0979 0.431152 18.0001 0.431152C16.9022 0.431152 15.8239 0.725121 14.8745 1.28325L3.55382 7.89933C2.60251 8.45549 1.81273 9.25566 1.26401 10.2193C0.715293 11.1829 0.427021 12.2759 0.428226 13.3882V26.6203C0.430661 27.7284 0.720705 28.8164 1.26928 29.7752C1.81786 30.734 2.6057 31.5299 3.55382 32.0832L14.8745 38.6992C15.8239 39.2574 16.9022 39.5513 18.0001 39.5513C19.0979 39.5513 20.1762 39.2574 21.1257 38.6992L32.4463 32.0832C33.3969 31.5284 34.1864 30.7298 34.7351 29.7677C35.2839 28.8056 35.5725 27.714 35.5719 26.603V13.3882C35.5731 12.2759 35.2848 11.1829 34.7361 10.2193C34.1874 9.25566 33.3976 8.45549 32.4463 7.89933Z" fill="#006CB5" stroke="#EDEDED" stroke-miterlimit="10"/>
<path d="M10.4939 21.0705H25.5063C26.125 21.0705 26.6266 20.5689 26.6266 19.9502C26.6266 19.3314 26.125 18.8298 25.5063 18.8298H10.4939C9.87511 18.8298 9.37354 19.3314 9.37354 19.9502C9.3735 20.5689 9.87511 21.0705 10.4939 21.0705Z" fill="white"/>
<path d="M19.1203 16.4133C18.7933 16.4133 18.5273 16.6793 18.5273 17.0063V17.7751H23.1166V17.0063C23.1166 16.6793 22.8506 16.4133 22.5236 16.4133H19.1203Z" fill="white"/>
<path d="M11.8286 17.0064C11.8286 16.0978 12.5678 15.3587 13.4763 15.3587H16.8796C17.312 15.3587 17.7057 15.5263 17.9999 15.7997C18.2941 15.5263 18.6879 15.3587 19.1202 15.3587H22.5235C23.4321 15.3587 24.1712 16.0978 24.1712 17.0064V17.7751H25.8829V14.1428C25.8829 13.524 25.3813 13.0225 24.7626 13.0225H11.2373C10.6185 13.0225 10.1169 13.524 10.1169 14.1428V17.7751H11.8286V17.0064Z" fill="white"/>
<path d="M13.4763 16.4133C13.1493 16.4133 12.8833 16.6793 12.8833 17.0063V17.7751H17.4726V17.0063C17.4726 16.6793 17.2066 16.4133 16.8796 16.4133H13.4763Z" fill="white"/>
<path d="M9 22.1252V26.9774H10.0547V25.0545H25.9453V26.9774H27V22.1252H9Z" fill="white"/>
</g>
<defs>
<clipPath id="clip0">
<rect width="36" height="40" fill="white"/>
</clipPath>
</defs>
</svg>
