<svg width="303" height="440" fill="none" xmlns="http://www.w3.org/2000/svg"><path opacity=".5" d="M.094 251.367c0-84.765 17.87-147.851 53.613-189.258C89.644 20.703 143.355 0 214.84 0c24.414 0 43.555 1.465 57.422 4.395v72.363c-17.383-3.906-34.571-5.86-51.563-5.86-31.054 0-56.445 4.688-76.172 14.063-19.531 9.375-34.179 23.242-43.945 41.601-9.766 18.36-15.527 44.434-17.285 78.223h3.809c19.335-33.203 50.292-49.805 92.871-49.805 38.281 0 68.261 12.012 89.941 36.036 21.68 24.023 32.52 57.226 32.52 99.609 0 45.703-12.891 81.934-38.672 108.691-25.782 26.563-61.524 39.844-107.227 39.844-31.641 0-59.277-7.324-82.91-21.972-23.438-14.649-41.602-36.036-54.492-64.161C6.44 324.902.094 291.016.094 251.367zm154.687 115.43c19.336 0 34.18-6.445 44.531-19.336 10.352-13.086 15.528-31.641 15.528-55.664 0-20.899-4.883-37.305-14.649-49.219-9.57-12.109-24.121-18.164-43.652-18.164-18.359 0-34.082 5.957-47.168 17.871-12.89 11.914-19.336 25.781-19.336 41.602 0 23.242 6.055 42.871 18.164 58.886 12.305 16.016 27.832 24.024 46.582 24.024z" fill="#F1F1F1"/></svg>