<svg width="46" height="50" fill="none" xmlns="http://www.w3.org/2000/svg"><path d="M41.46 9.874l-14.466-8.27a8.013 8.013 0 00-7.988 0L4.541 9.874a7.95 7.95 0 00-2.926 2.9 7.855 7.855 0 00-1.068 3.961v16.54a7.845 7.845 0 001.075 3.944 7.94 7.94 0 002.919 2.885l14.465 8.27a8.013 8.013 0 007.988 0l14.465-8.27a7.94 7.94 0 002.925-2.894 7.845 7.845 0 001.069-3.956V16.735a7.856 7.856 0 00-1.068-3.96 7.951 7.951 0 00-2.926-2.9z" fill="#006CB5" stroke="#EDEDED" stroke-miterlimit="10"/><path d="M22.797 13.738c-4.313 0-7.821 3.509-7.821 7.821 0 5.42 7.828 14.68 7.828 14.68s7.813-9.526 7.813-14.68c0-4.312-3.508-7.82-7.82-7.82zm2.36 10.111a3.332 3.332 0 01-2.36.976c-.855 0-1.71-.325-2.36-.976a3.34 3.34 0 010-4.72 3.315 3.315 0 012.36-.977c.89 0 1.729.348 2.36.978a3.34 3.34 0 010 4.72z" fill="#fff"/></svg>