<svg width="65" height="65" fill="none" xmlns="http://www.w3.org/2000/svg"><path d="M27.304 30.25h-3.029a.462.462 0 00-.465.458v2.982c0 .253.208.458.465.458h3.029a.462.462 0 00.465-.458v-2.982a.462.462 0 00-.465-.458zm-.466 2.982H24.74v-2.066h2.098v2.066zm7.529-2.982h-3.029a.462.462 0 00-.465.458v2.982c0 .253.208.458.465.458h3.03a.462.462 0 00.465-.458v-2.982a.462.462 0 00-.466-.458zm-.465 2.982h-2.098v-2.066h2.098v2.066zm7.312-2.982h-3.03a.462.462 0 00-.465.458v2.982c0 .253.209.458.466.458h3.029a.462.462 0 00.465-.458v-2.982a.462.462 0 00-.465-.458zm-.466 2.982H38.65v-2.066h2.098v2.066zm-13.444 3.81h-3.029a.462.462 0 00-.465.458v2.982c0 .253.208.458.465.458h3.029a.462.462 0 00.465-.458V37.5a.462.462 0 00-.465-.458zm-.466 2.982H24.74v-2.066h2.098v2.066zm7.529-2.982h-3.029a.462.462 0 00-.465.458v2.982c0 .253.208.458.465.458h3.03a.462.462 0 00.465-.458V37.5a.462.462 0 00-.466-.458zm-.465 2.982h-2.098v-2.066h2.098v2.066zm7.312-2.982h-3.03a.462.462 0 00-.465.458v2.982c0 .253.209.458.466.458h3.029a.462.462 0 00.465-.458V37.5a.462.462 0 00-.465-.458zm-.466 2.982H38.65v-2.066h2.098v2.066z" fill="#fff" stroke="#fff"/><path d="M44.9 21.378h-3.075l-.011.001v-.61c0-.998-.825-1.81-1.839-1.81-1.013 0-1.838.812-1.838 1.81v.61h-3.464v-.61c0-.998-.824-1.81-1.838-1.81-1.014 0-1.839.812-1.839 1.81v.61h-3.463v-.61c0-.998-.825-1.81-1.839-1.81s-1.838.812-1.838 1.81v.61h-3.078a.462.462 0 00-.465.457v23.748c0 .253.208.458.465.458h24.121a.462.462 0 00.466-.458V21.836a.462.462 0 00-.466-.458zm-5.832-.609c0-.493.407-.894.907-.894.501 0 .908.401.908.894v2.528a.902.902 0 01-.908.894c-.5 0-.907-.4-.907-.894V20.77zm-6.233-.894c.5 0 .908.401.908.894v2.528a.902.902 0 01-.908.894c-.5 0-.908-.4-.908-.894V21.88c.001-.014.005-.028.005-.043 0-.015-.004-.029-.005-.043V20.77c0-.493.407-.894.908-.894zm-8.049.894c0-.493.407-.894.908-.894.5 0 .908.401.908.894v2.528a.902.902 0 01-.908.894c-.5 0-.908-.4-.908-.894V20.77zm19.648 24.357h-23.19V22.295h2.612v1.003c0 .998.825 1.81 1.838 1.81 1.014 0 1.839-.812 1.839-1.81v-1.003h3.463v1.003c0 .998.825 1.81 1.839 1.81s1.838-.812 1.838-1.81v-1.003h3.464v1.003c0 .998.825 1.81 1.838 1.81 1.014 0 1.839-.812 1.839-1.81v-1.005l.011.002h2.609v22.831z" fill="#fff" stroke="#fff"/><circle cx="32.5" cy="32.5" r="31" stroke="#fff" stroke-width="3"/></svg>