<svg width="35" height="35" fill="none" xmlns="http://www.w3.org/2000/svg"><path d="M0 17.056V18c.246 9.05 7.533 16.316 16.207 17h2.666C27.596 34.31 34.76 26.982 35 17.986v-.93C34.759 7.903 27.349.48 18.415.022 8.805-.464.267 7.247 0 17.056z" fill="#fff"/><path d="M17.582 8.792c2.789 0 3.117.007 4.224.061 1.019.041 1.566.22 1.935.363.485.191.834.424 1.196.793.362.369.595.724.786 1.216.143.376.308.937.362 1.976.055 1.121.062 1.456.062 4.293s-.007 3.172-.062 4.293c-.04 1.032-.212 1.6-.362 1.975a3.279 3.279 0 01-.786 1.217 3.226 3.226 0 01-1.196.793c-.37.15-.923.321-1.935.362-1.1.055-1.435.062-4.224.062-2.79 0-3.117-.007-4.225-.062-1.018-.04-1.565-.219-1.934-.362a3.217 3.217 0 01-1.197-.793 3.365 3.365 0 01-.786-1.217c-.143-.376-.307-.936-.362-1.975-.055-1.121-.061-1.456-.061-4.293s.006-3.172.061-4.293c.041-1.032.212-1.6.362-1.976.192-.492.417-.847.787-1.216.362-.37.71-.602 1.196-.793.369-.15.922-.322 1.934-.363 1.1-.047 1.436-.061 4.225-.061zm0-1.914c-2.837 0-3.193.014-4.3.068-1.107.055-1.873.233-2.536.492A5.002 5.002 0 008.9 8.668a5.21 5.21 0 00-1.203 1.888c-.26.67-.437 1.449-.485 2.577-.055 1.128-.062 1.49-.062 4.374 0 2.885.014 3.247.062 4.375.055 1.128.232 1.9.485 2.577A5.268 5.268 0 008.9 26.346a5.114 5.114 0 001.846 1.23c.663.267 1.429.445 2.536.493 1.114.054 1.47.068 4.3.068s3.192-.014 4.3-.068c1.107-.055 1.872-.233 2.535-.493a5.001 5.001 0 001.846-1.23 5.21 5.21 0 001.203-1.887c.26-.67.438-1.449.485-2.577.055-1.128.062-1.49.062-4.375 0-2.884-.014-3.247-.062-4.374-.054-1.128-.232-1.9-.485-2.577a5.268 5.268 0 00-1.203-1.887 5.115 5.115 0 00-1.846-1.23c-.663-.267-1.428-.445-2.536-.493-1.107-.054-1.47-.068-4.3-.068z" fill="#2E95DB"/><rect x="8" y="8" width="19" height="19" rx="4" fill="#2E95DB"/><path d="M17.581 12.046c-2.966 0-5.359 2.44-5.359 5.455 0 3.014 2.4 5.455 5.36 5.455 2.96 0 5.358-2.44 5.358-5.455s-2.399-5.455-5.359-5.455zm0 8.996c-1.92 0-3.479-1.58-3.479-3.541 0-1.962 1.559-3.541 3.48-3.541 1.92 0 3.479 1.579 3.479 3.54 0 1.962-1.559 3.542-3.48 3.542zm5.572-7.944c.69 0 1.25-.569 1.25-1.27 0-.703-.56-1.272-1.25-1.272-.691 0-1.251.569-1.251 1.271s.56 1.271 1.25 1.271z" fill="#fff"/></svg>