<svg width="29" height="30" fill="none" xmlns="http://www.w3.org/2000/svg"><path d="M0 14.133v.782C.204 22.414 6.242 28.435 13.43 29h2.209c7.227-.57 13.163-6.643 13.361-14.097v-.77C28.802 6.549 22.662.397 15.26.018 7.294-.384.22 6.005 0 14.133z" fill="url(#paint0_radial)"/><path d="M14.568 7.285c2.311 0 2.583.006 3.5.051.845.034 1.298.181 1.603.3.403.159.692.351.992.657.3.306.492.6.651 1.008.119.312.255.777.3 1.637.046.93.051 1.207.051 3.557 0 2.351-.005 2.629-.05 3.557-.035.856-.176 1.326-.301 1.637a2.717 2.717 0 01-.651 1.009c-.3.305-.59.498-.992.657-.305.124-.764.266-1.602.3-.912.045-1.19.05-3.5.05-2.312 0-2.584-.005-3.501-.05-.844-.034-1.297-.181-1.603-.3a2.667 2.667 0 01-.992-.657c-.3-.306-.492-.6-.65-1.009-.12-.311-.256-.776-.301-1.637-.045-.928-.051-1.206-.051-3.556 0-2.351.006-2.629.05-3.558.035-.855.177-1.325.301-1.637.159-.407.346-.702.651-1.008.3-.306.59-.498.992-.657.306-.124.764-.266 1.603-.3.912-.04 1.19-.051 3.5-.051zm0-1.586c-2.35 0-2.645.011-3.563.057-.917.045-1.552.192-2.101.408a4.145 4.145 0 00-1.53 1.02c-.48.492-.775.979-.996 1.562-.215.555-.363 1.201-.402 2.136-.046.934-.051 1.235-.051 3.625 0 2.39.011 2.69.05 3.625.046.934.193 1.574.403 2.135.22.578.515 1.07.997 1.564.481.492.963.793 1.529 1.019.55.22 1.184.368 2.101.408.924.045 1.218.056 3.563.056s2.645-.01 3.563-.056c.917-.046 1.552-.193 2.101-.408a4.143 4.143 0 001.53-1.02c.481-.492.776-.98.996-1.563.216-.555.363-1.2.402-2.135.046-.935.052-1.235.052-3.625 0-2.39-.012-2.69-.052-3.625-.045-.935-.192-1.575-.402-2.136a4.364 4.364 0 00-.996-1.563 4.238 4.238 0 00-1.53-1.02c-.55-.22-1.184-.368-2.101-.407-.918-.046-1.218-.057-3.563-.057z" fill="#fff"/><path d="M14.568 9.981c-2.458 0-4.44 2.022-4.44 4.52 0 2.498 1.988 4.52 4.44 4.52 2.453 0 4.44-2.022 4.44-4.52 0-2.498-1.987-4.52-4.44-4.52zm0 7.454c-1.591 0-2.883-1.308-2.883-2.934 0-1.625 1.291-2.934 2.883-2.934s2.883 1.309 2.883 2.934c0 1.626-1.291 2.934-2.883 2.934zm4.616-6.582c.573 0 1.037-.471 1.037-1.053s-.464-1.054-1.037-1.054c-.572 0-1.036.472-1.036 1.054 0 .582.464 1.053 1.036 1.053z" fill="#fff"/><defs><radialGradient id="paint0_radial" cx="0" cy="0" r="1" gradientUnits="userSpaceOnUse" gradientTransform="matrix(2.19441 -41.86913 35.58875 1.86525 .53 26.342)"><stop stop-color="#FED576"/><stop offset=".263" stop-color="#F47133"/><stop offset=".609" stop-color="#BC3081"/><stop offset="1" stop-color="#4C63D2"/></radialGradient></defs></svg>