<svg width="36" height="40" fill="none" xmlns="http://www.w3.org/2000/svg"><g clip-path="url(#clip0)"><path d="M32.446 7.9l-11.32-6.617a6.166 6.166 0 00-6.252 0L3.554 7.9a6.291 6.291 0 00-2.29 2.32 6.392 6.392 0 00-.836 3.17v13.23a6.383 6.383 0 00.841 3.155 6.282 6.282 0 002.285 2.308l11.32 6.616a6.165 6.165 0 006.252 0l11.32-6.616a6.283 6.283 0 002.29-2.315 6.382 6.382 0 00.836-3.165V13.388a6.392 6.392 0 00-.836-3.169 6.291 6.291 0 00-2.29-2.32z" fill="#006CB5" stroke="#EDEDED" stroke-miterlimit="10"/><g clip-path="url(#clip1)"><path d="M20.72 28.024H9v-1.093c.213.17.486.273.779.273h10.133l.809.82zm-6.648-16.048a1.14 1.14 0 00-.641 2.079c.129-.358.338-.687.616-.965a2.63 2.63 0 01.966-.617 1.136 1.136 0 00-.94-.497zm-.325 2.983a2.17 2.17 0 104.341 0 2.17 2.17 0 00-4.342 0zm-1.179 2.995c-.508 1.127-1.617 4.008-1.921 4.733h3.781c.084-.205.177-.405.28-.594.356-.664 1.468-.994 1.203-1.92l-.007-.025.995.944c.075.07.164.128.26.164l2.722 1.04a.781.781 0 001.01-.453.783.783 0 00-.452-1.012l-2.407-.92a.947.947 0 01-.302-.19l-2.121-2.012a.848.848 0 00-.328-.181 1.18 1.18 0 00-.09-.027 1.635 1.635 0 00-.1-.027c-.53-.14-1.118-.26-1.662-.213-.18.015-.376.061-.528.166-.175.125-.247.339-.333.527zm-2.79 8.774H20.11l.99 1.003a.982.982 0 00.698.293h4.22c.548 0 .99-.45.982-.998a.992.992 0 00-.998-.965H22.21l-2.578-2.616c-.2-.204-.318-.287-.676-.287l-9.177.005a.778.778 0 00-.779.78v2.005c0 .43.348.779.779.779zm15.805-3.591a2.253 2.253 0 10-4.506.002 2.253 2.253 0 004.506-.002z" fill="#fff"/></g></g><defs><clipPath id="clip0"><path fill="#fff" d="M0 0h36v40H0z"/></clipPath><clipPath id="clip1"><path fill="#fff" transform="translate(9 11)" d="M0 0h18v18H0z"/></clipPath></defs></svg>