<svg width="36" height="40" fill="none" xmlns="http://www.w3.org/2000/svg"><g clip-path="url(#clip0)"><path d="M32.446 7.9l-11.32-6.617a6.166 6.166 0 00-6.252 0L3.554 7.9a6.291 6.291 0 00-2.29 2.32 6.392 6.392 0 00-.836 3.17v13.23a6.383 6.383 0 00.841 3.155 6.282 6.282 0 002.285 2.308l11.32 6.616a6.165 6.165 0 006.252 0l11.32-6.616a6.283 6.283 0 002.29-2.315 6.382 6.382 0 00.836-3.165V13.388a6.392 6.392 0 00-.836-3.169 6.291 6.291 0 00-2.29-2.32z" fill="#006CB5" stroke="#EDEDED" stroke-miterlimit="10"/><path d="M10.494 21.07h15.012a1.12 1.12 0 000-2.24H10.494a1.12 1.12 0 100 2.24zm8.626-4.657a.594.594 0 00-.593.593v.77h4.59v-.77a.594.594 0 00-.593-.593H19.12z" fill="#fff"/><path d="M11.829 17.006a1.65 1.65 0 011.647-1.647h3.404c.432 0 .826.167 1.12.44a1.641 1.641 0 011.12-.44h3.403c.91 0 1.648.739 1.648 1.647v.77h1.712v-3.633a1.12 1.12 0 00-1.12-1.12H11.237a1.12 1.12 0 00-1.12 1.12v3.632h1.712v-.769z" fill="#fff"/><path d="M13.476 16.413a.594.594 0 00-.593.593v.77h4.59v-.77a.594.594 0 00-.593-.593h-3.404zM9 22.125v4.852h1.055v-1.922h15.89v1.922H27v-4.852H9z" fill="#fff"/></g><defs><clipPath id="clip0"><path fill="#fff" d="M0 0h36v40H0z"/></clipPath></defs></svg>