<svg width="65" height="65" fill="none" xmlns="http://www.w3.org/2000/svg"><path d="M32.5 0C14.55 0 0 14.55 0 32.5S14.55 65 32.5 65 65 50.45 65 32.5 50.45 0 32.5 0zm0 2.708c16.427 0 29.792 13.365 29.792 29.792 0 7.227-2.59 13.86-6.888 19.024-2.97-1.24-9.981-3.674-14.322-4.955-.37-.116-.428-.135-.428-1.675 0-1.273.524-2.554 1.034-3.638.553-1.179 1.209-3.16 1.444-4.937.659-.765 1.556-2.272 2.132-5.146.505-2.532.27-3.454-.066-4.319-.034-.091-.072-.18-.098-.27-.127-.595.048-3.68.481-6.073.3-1.643-.076-5.135-2.338-8.025-1.428-1.826-4.16-4.067-9.15-4.38l-2.738.003c-4.906.31-7.641 2.551-9.07 4.377-2.26 2.89-2.636 6.382-2.337 8.023.436 2.395.608 5.48.484 6.062-.027.102-.064.192-.1.283-.334.865-.572 1.787-.064 4.32.574 2.873 1.47 4.38 2.131 5.145.233 1.777.89 3.758 1.444 4.937.405.862.596 2.035.596 3.693 0 1.54-.059 1.56-.405 1.669-4.488 1.325-11.632 3.906-14.296 5.073-4.382-5.188-7.03-11.885-7.03-19.191 0-16.427 13.365-29.792 29.792-29.792zM11.7 53.802c3.05-1.245 9.13-3.414 13.125-4.593 2.322-.733 2.322-2.689 2.322-4.26 0-1.302-.09-3.223-.852-4.847-.524-1.112-1.121-3.019-1.254-4.512a1.342 1.342 0 00-.457-.902c-.384-.336-1.164-1.565-1.661-4.046-.394-1.964-.227-2.394-.066-2.809.069-.177.135-.352.188-.549.325-1.189-.037-5.094-.431-7.26-.172-.941.044-3.617 1.806-5.87 1.579-2.02 3.97-3.145 7.02-3.34l2.568-.002c3.131.197 5.522 1.322 7.104 3.342 1.761 2.253 1.975 4.929 1.803 5.871-.391 2.165-.756 6.07-.43 7.258.055.198.118.373.187.55.162.415.328.845-.063 2.809-.498 2.48-1.28 3.71-1.664 4.046-.262.23-.426.553-.458.902-.13 1.493-.727 3.4-1.25 4.512-.6 1.277-1.291 2.976-1.291 4.791 0 1.572 0 3.527 2.346 4.267 3.822 1.129 9.931 3.228 13.158 4.497-5.388 5.334-12.79 8.635-20.95 8.635-8.085 0-15.425-3.243-20.8-8.49z" fill="#fff"/></svg>