<svg width="46" height="50" fill="none" xmlns="http://www.w3.org/2000/svg"><path d="M41.46 9.874l-14.466-8.27a8.013 8.013 0 00-7.988 0L4.541 9.874a7.95 7.95 0 00-2.926 2.9 7.855 7.855 0 00-1.068 3.961v16.54a7.845 7.845 0 001.075 3.944 7.94 7.94 0 002.919 2.885l14.465 8.27a8.013 8.013 0 007.988 0l14.465-8.27a7.94 7.94 0 002.925-2.894 7.845 7.845 0 001.069-3.956V16.735a7.856 7.856 0 00-1.068-3.96 7.95 7.95 0 00-2.926-2.9z" fill="#006CB5" stroke="#EDEDED" stroke-miterlimit="10"/><path d="M22.38 27.3c-1.719-1.41-2.866-3.15-3.47-4.14l-.45-.847c.158-.168 1.358-1.45 1.878-2.146.653-.873-.294-1.662-.294-1.662s-2.666-2.661-3.274-3.189c-.607-.528-1.306-.235-1.306-.235-1.277.824-2.601 1.54-2.68 4.982-.004 3.223 2.448 6.547 5.1 9.12 2.655 2.907 6.301 5.82 9.826 5.817 3.45-.078 4.167-1.4 4.992-2.673 0 0 .294-.698-.235-1.305-.53-.606-3.196-3.267-3.196-3.267s-.79-.946-1.665-.293c-.653.487-1.825 1.57-2.107 1.832 0 0-1.96-1.042-3.12-1.994z" fill="#fff"/></svg>