<svg width="36" height="35" fill="none" xmlns="http://www.w3.org/2000/svg"><path d="M18.014 34.998c9.665 0 17.5-7.834 17.5-17.499C35.513 7.835 27.677 0 18.013 0 8.349 0 .514 7.835.514 17.5c0 9.664 7.835 17.498 17.5 17.498z" fill="#fff"/><path fill-rule="evenodd" clip-rule="evenodd" d="M17.351 25.176h1.374s.417-.048.629-.274c.198-.212.191-.601.191-.601s-.027-1.846.827-2.112c.841-.267 1.928 1.777 3.076 2.57.869.595 1.525.465 1.525.465l3.069-.041s1.606-.096.84-1.36c-.06-.103-.444-.937-2.282-2.64-1.921-1.783-1.668-1.496.649-4.586 1.415-1.88 1.976-3.028 1.798-3.52-.171-.472-1.203-.342-1.203-.342l-3.46.02s-.252-.034-.444.076c-.184.109-.307.369-.307.369s-.547 1.456-1.278 2.693c-1.538 2.611-2.154 2.748-2.407 2.59-.587-.382-.437-1.517-.437-2.33 0-2.53.383-3.589-.745-3.862-.376-.09-.65-.15-1.613-.158-1.23-.013-2.276 0-2.871.294-.39.192-.697.622-.513.643.226.027.745.143 1.019.512.355.479.341 1.566.341 1.566s.205 2.98-.478 3.35c-.465.252-1.107-.267-2.475-2.632a21.701 21.701 0 01-1.23-2.557s-.103-.253-.287-.383a1.405 1.405 0 00-.533-.212l-3.281.02s-.493.014-.677.226c-.157.192-.014.588-.014.588s2.57 6.016 5.482 9.044c2.687 2.768 5.715 2.584 5.715 2.584z" fill="#2E95DB"/></svg>