<svg width="29" height="29" fill="none" xmlns="http://www.w3.org/2000/svg"><path d="M14.5 29C22.508 29 29 22.508 29 14.5S22.508 0 14.5 0 0 6.492 0 14.5 6.492 29 14.5 29z" fill="#4D76A1"/><path fill-rule="evenodd" clip-rule="evenodd" d="M13.95 20.86h1.14s.345-.039.52-.226c.164-.175.159-.498.159-.498s-.023-1.53.685-1.75c.697-.221 1.597 1.472 2.549 2.13.72.492 1.263.384 1.263.384l2.543-.034s1.331-.079.697-1.127c-.051-.085-.368-.776-1.892-2.186-1.591-1.478-1.382-1.24.538-3.8 1.173-1.558 1.637-2.51 1.49-2.918-.142-.39-.997-.283-.997-.283l-2.866.017s-.21-.028-.368.062c-.153.091-.255.306-.255.306s-.453 1.207-1.06 2.232c-1.274 2.164-1.784 2.277-1.993 2.147-.487-.318-.363-1.258-.363-1.932 0-2.095.318-2.973-.617-3.2-.311-.074-.538-.125-1.337-.13-1.02-.012-1.886 0-2.379.243-.322.159-.577.516-.424.533.186.022.617.119.844.425.294.396.283 1.297.283 1.297s.17 2.47-.397 2.775c-.385.21-.917-.221-2.05-2.18-.584-1.009-1.02-2.12-1.02-2.12s-.085-.209-.238-.316a1.161 1.161 0 00-.441-.176l-2.72.017s-.407.011-.56.187c-.13.159-.011.487-.011.487s2.13 4.984 4.542 7.494c2.226 2.294 4.736 2.14 4.736 2.14z" fill="#fff"/></svg>