<svg width="303" height="440" viewBox="0 0 303 440" fill="none" xmlns="http://www.w3.org/2000/svg">
<path opacity="0.5" d="M0.09375 251.367C0.09375 166.602 17.9648 103.516 53.707 62.1094C89.6445 20.7031 143.355 0 214.84 0C239.254 0 258.395 1.46484 272.262 4.39453V76.7578C254.879 72.8516 237.691 70.8984 220.699 70.8984C189.645 70.8984 164.254 75.5859 144.527 84.9609C124.996 94.3359 110.348 108.203 100.582 126.562C90.8164 144.922 85.0547 170.996 83.2969 204.785H87.1055C106.441 171.582 137.398 154.98 179.977 154.98C218.258 154.98 248.238 166.992 269.918 191.016C291.598 215.039 302.438 248.242 302.438 290.625C302.438 336.328 289.547 372.559 263.766 399.316C237.984 425.879 202.242 439.16 156.539 439.16C124.898 439.16 97.2617 431.836 73.6289 417.188C50.1914 402.539 32.0273 381.152 19.1367 353.027C6.44141 324.902 0.09375 291.016 0.09375 251.367ZM154.781 366.797C174.117 366.797 188.961 360.352 199.312 347.461C209.664 334.375 214.84 315.82 214.84 291.797C214.84 270.898 209.957 254.492 200.191 242.578C190.621 230.469 176.07 224.414 156.539 224.414C138.18 224.414 122.457 230.371 109.371 242.285C96.4805 254.199 90.0352 268.066 90.0352 283.887C90.0352 307.129 96.0898 326.758 108.199 342.773C120.504 358.789 136.031 366.797 154.781 366.797Z" fill="#F1F1F1"/>
</svg>
